<svg width="64" height="64" viewBox="0 0 64 64" fill="none" xmlns="http://www.w3.org/2000/svg">
<circle cx="32" cy="32" r="32" fill="#F0B90B"/>
<g clip-path="url(#clip0_2404_2099)">
<path d="M20.4359 16.7395L32.2636 10L44.0914 16.7395L39.7429 19.2293L32.2636 14.9795L24.7843 19.2293L20.4359 16.7395ZM44.0914 25.239L39.7429 22.7493L32.2636 26.999L24.7843 22.7493L20.4359 25.239V30.2186L27.9151 34.4682V42.9677L32.2636 45.4576L36.6121 42.9677V34.4682L44.0914 30.2186V25.239ZM44.0914 38.7181V33.7386L39.7429 36.2282V41.2077L44.0914 38.7181ZM47.1787 40.4781L39.6994 44.7277V49.7073L51.5272 42.9677V29.4887L47.1787 31.9786V40.4781ZM42.8304 20.9893L47.1787 23.479V28.4586L51.5272 25.9688V20.9893L47.1787 18.4995L42.8304 20.9893ZM27.9151 46.5308V51.5103L32.2636 54L36.6121 51.5103V46.5308L32.2636 49.0205L27.9151 46.5308ZM20.4359 38.7181L24.7843 41.2077V36.2282L20.4359 33.7386V38.7181ZM27.9151 20.9893L32.2636 23.479L36.6121 20.9893L32.2636 18.4995L27.9151 20.9893ZM17.3484 23.479L21.6969 20.9893L17.3484 18.4995L13 20.9893V25.9688L17.3484 28.4586V23.479ZM17.3484 31.9786L13 29.4887V42.9677L24.8277 49.7073V44.7277L17.3484 40.4781V31.9786Z" fill="white"/>
</g>
<defs>
<clipPath id="clip0_2404_2099">
<rect width="39" height="44" fill="white" transform="translate(13 10)"/>
</clipPath>
</defs>
</svg>
