<svg width="99" height="29" viewBox="0 0 99 29" fill="none" xmlns="http://www.w3.org/2000/svg">
<path d="M98.5 0.5H0V12.5H14.5V17H0V29H87.5L98.5 21.5V0.5Z" fill="#FAF002"/>
<path d="M33.0568 19V10.2727H34.1136V14.1591H38.767V10.2727H39.8239V19H38.767V15.0966H34.1136V19H33.0568ZM44.4624 19.1364C43.8714 19.1364 43.353 18.9957 42.907 18.7145C42.4638 18.4332 42.1172 18.0398 41.8672 17.5341C41.62 17.0284 41.4964 16.4375 41.4964 15.7614C41.4964 15.0795 41.62 14.4844 41.8672 13.9759C42.1172 13.4673 42.4638 13.0724 42.907 12.7912C43.353 12.5099 43.8714 12.3693 44.4624 12.3693C45.0533 12.3693 45.5703 12.5099 46.0135 12.7912C46.4595 13.0724 46.8061 13.4673 47.0533 13.9759C47.3033 14.4844 47.4283 15.0795 47.4283 15.7614C47.4283 16.4375 47.3033 17.0284 47.0533 17.5341C46.8061 18.0398 46.4595 18.4332 46.0135 18.7145C45.5703 18.9957 45.0533 19.1364 44.4624 19.1364ZM44.4624 18.233C44.9112 18.233 45.2805 18.1179 45.5703 17.8878C45.8601 17.6577 46.0746 17.3551 46.2138 16.9801C46.353 16.6051 46.4226 16.1989 46.4226 15.7614C46.4226 15.3239 46.353 14.9162 46.2138 14.5384C46.0746 14.1605 45.8601 13.8551 45.5703 13.6222C45.2805 13.3892 44.9112 13.2727 44.4624 13.2727C44.0135 13.2727 43.6442 13.3892 43.3544 13.6222C43.0646 13.8551 42.8501 14.1605 42.7109 14.5384C42.5717 14.9162 42.5021 15.3239 42.5021 15.7614C42.5021 16.1989 42.5717 16.6051 42.7109 16.9801C42.8501 17.3551 43.0646 17.6577 43.3544 17.8878C43.6442 18.1179 44.0135 18.233 44.4624 18.233ZM48.9634 19V12.4545H49.935V13.4773H50.0202C50.1566 13.1278 50.3768 12.8565 50.6808 12.6634C50.9847 12.4673 51.3498 12.3693 51.7759 12.3693C52.2077 12.3693 52.5671 12.4673 52.854 12.6634C53.1438 12.8565 53.3697 13.1278 53.5316 13.4773H53.5998C53.7674 13.1392 54.0188 12.8707 54.354 12.6719C54.6893 12.4702 55.0913 12.3693 55.56 12.3693C56.1452 12.3693 56.6239 12.5526 56.9961 12.919C57.3683 13.2827 57.5543 13.8494 57.5543 14.6193V19H56.5487V14.6193C56.5487 14.1364 56.4165 13.7912 56.1523 13.5838C55.8881 13.3764 55.5771 13.2727 55.2191 13.2727C54.7589 13.2727 54.4023 13.4119 54.1495 13.6903C53.8967 13.9659 53.7702 14.3153 53.7702 14.7386V19H52.7475V14.517C52.7475 14.1449 52.6268 13.8452 52.3853 13.6179C52.1438 13.3878 51.8327 13.2727 51.4521 13.2727C51.1907 13.2727 50.9464 13.3423 50.7191 13.4815C50.4947 13.6207 50.3129 13.8139 50.1737 14.0611C50.0373 14.3054 49.9691 14.5881 49.9691 14.9091V19H48.9634ZM62.1374 19.1364C61.5067 19.1364 60.9627 18.9972 60.5053 18.7188C60.0508 18.4375 59.6999 18.0455 59.4528 17.5426C59.2085 17.0369 59.0863 16.4489 59.0863 15.7784C59.0863 15.108 59.2085 14.517 59.4528 14.0057C59.6999 13.4915 60.0437 13.0909 60.484 12.804C60.9272 12.5142 61.4442 12.3693 62.0352 12.3693C62.3761 12.3693 62.7127 12.4261 63.0451 12.5398C63.3775 12.6534 63.68 12.8381 63.9528 13.0938C64.2255 13.3466 64.4428 13.6818 64.6048 14.0994C64.7667 14.517 64.8477 15.0312 64.8477 15.642V16.0682H59.8022V15.1989H63.8249C63.8249 14.8295 63.7511 14.5 63.6033 14.2102C63.4585 13.9205 63.2511 13.6918 62.9812 13.5241C62.7141 13.3565 62.3988 13.2727 62.0352 13.2727C61.6346 13.2727 61.288 13.3722 60.9954 13.571C60.7056 13.767 60.4826 14.0227 60.3263 14.3381C60.1701 14.6534 60.092 14.9915 60.092 15.3523V15.9318C60.092 16.4261 60.1772 16.8452 60.3477 17.1889C60.521 17.5298 60.761 17.7898 61.0678 17.9688C61.3746 18.1449 61.7312 18.233 62.1374 18.233C62.4016 18.233 62.6403 18.196 62.8533 18.1222C63.0692 18.0455 63.2553 17.9318 63.4116 17.7812C63.5678 17.6278 63.6886 17.4375 63.7738 17.2102L64.7454 17.483C64.6431 17.8125 64.4712 18.1023 64.2298 18.3523C63.9883 18.5994 63.69 18.7926 63.3349 18.9318C62.9798 19.0682 62.5806 19.1364 62.1374 19.1364Z" fill="black"/>
</svg>
