<svg width="100" height="30" viewBox="0 0 100 30" fill="none" xmlns="http://www.w3.org/2000/svg">
<path d="M99.5 1H1V13H15.5V16H1V29.5H88.5L99.5 22V1Z" stroke="black" stroke-width="0.5"/>
<path d="M34.0568 19V10.2727H35.1136V14.1591H39.767V10.2727H40.8239V19H39.767V15.0966H35.1136V19H34.0568ZM45.4624 19.1364C44.8714 19.1364 44.353 18.9957 43.907 18.7145C43.4638 18.4332 43.1172 18.0398 42.8672 17.5341C42.62 17.0284 42.4964 16.4375 42.4964 15.7614C42.4964 15.0795 42.62 14.4844 42.8672 13.9759C43.1172 13.4673 43.4638 13.0724 43.907 12.7912C44.353 12.5099 44.8714 12.3693 45.4624 12.3693C46.0533 12.3693 46.5703 12.5099 47.0135 12.7912C47.4595 13.0724 47.8061 13.4673 48.0533 13.9759C48.3033 14.4844 48.4283 15.0795 48.4283 15.7614C48.4283 16.4375 48.3033 17.0284 48.0533 17.5341C47.8061 18.0398 47.4595 18.4332 47.0135 18.7145C46.5703 18.9957 46.0533 19.1364 45.4624 19.1364ZM45.4624 18.233C45.9112 18.233 46.2805 18.1179 46.5703 17.8878C46.8601 17.6577 47.0746 17.3551 47.2138 16.9801C47.353 16.6051 47.4226 16.1989 47.4226 15.7614C47.4226 15.3239 47.353 14.9162 47.2138 14.5384C47.0746 14.1605 46.8601 13.8551 46.5703 13.6222C46.2805 13.3892 45.9112 13.2727 45.4624 13.2727C45.0135 13.2727 44.6442 13.3892 44.3544 13.6222C44.0646 13.8551 43.8501 14.1605 43.7109 14.5384C43.5717 14.9162 43.5021 15.3239 43.5021 15.7614C43.5021 16.1989 43.5717 16.6051 43.7109 16.9801C43.8501 17.3551 44.0646 17.6577 44.3544 17.8878C44.6442 18.1179 45.0135 18.233 45.4624 18.233ZM49.9634 19V12.4545H50.935V13.4773H51.0202C51.1566 13.1278 51.3768 12.8565 51.6808 12.6634C51.9847 12.4673 52.3498 12.3693 52.7759 12.3693C53.2077 12.3693 53.5671 12.4673 53.854 12.6634C54.1438 12.8565 54.3697 13.1278 54.5316 13.4773H54.5998C54.7674 13.1392 55.0188 12.8707 55.354 12.6719C55.6893 12.4702 56.0913 12.3693 56.56 12.3693C57.1452 12.3693 57.6239 12.5526 57.9961 12.919C58.3683 13.2827 58.5543 13.8494 58.5543 14.6193V19H57.5487V14.6193C57.5487 14.1364 57.4165 13.7912 57.1523 13.5838C56.8881 13.3764 56.5771 13.2727 56.2191 13.2727C55.7589 13.2727 55.4023 13.4119 55.1495 13.6903C54.8967 13.9659 54.7702 14.3153 54.7702 14.7386V19H53.7475V14.517C53.7475 14.1449 53.6268 13.8452 53.3853 13.6179C53.1438 13.3878 52.8327 13.2727 52.4521 13.2727C52.1907 13.2727 51.9464 13.3423 51.7191 13.4815C51.4947 13.6207 51.3129 13.8139 51.1737 14.0611C51.0373 14.3054 50.9691 14.5881 50.9691 14.9091V19H49.9634ZM63.1374 19.1364C62.5067 19.1364 61.9627 18.9972 61.5053 18.7188C61.0508 18.4375 60.6999 18.0455 60.4528 17.5426C60.2085 17.0369 60.0863 16.4489 60.0863 15.7784C60.0863 15.108 60.2085 14.517 60.4528 14.0057C60.6999 13.4915 61.0437 13.0909 61.484 12.804C61.9272 12.5142 62.4442 12.3693 63.0352 12.3693C63.3761 12.3693 63.7127 12.4261 64.0451 12.5398C64.3775 12.6534 64.68 12.8381 64.9528 13.0938C65.2255 13.3466 65.4428 13.6818 65.6048 14.0994C65.7667 14.517 65.8477 15.0312 65.8477 15.642V16.0682H60.8022V15.1989H64.8249C64.8249 14.8295 64.7511 14.5 64.6033 14.2102C64.4585 13.9205 64.2511 13.6918 63.9812 13.5241C63.7141 13.3565 63.3988 13.2727 63.0352 13.2727C62.6346 13.2727 62.288 13.3722 61.9954 13.571C61.7056 13.767 61.4826 14.0227 61.3263 14.3381C61.1701 14.6534 61.092 14.9915 61.092 15.3523V15.9318C61.092 16.4261 61.1772 16.8452 61.3477 17.1889C61.521 17.5298 61.761 17.7898 62.0678 17.9688C62.3746 18.1449 62.7312 18.233 63.1374 18.233C63.4016 18.233 63.6403 18.196 63.8533 18.1222C64.0692 18.0455 64.2553 17.9318 64.4116 17.7812C64.5678 17.6278 64.6886 17.4375 64.7738 17.2102L65.7454 17.483C65.6431 17.8125 65.4712 18.1023 65.2298 18.3523C64.9883 18.5994 64.69 18.7926 64.3349 18.9318C63.9798 19.0682 63.5806 19.1364 63.1374 19.1364Z" fill="black"/>
</svg>
