<svg width="100" height="30" viewBox="0 0 100 30" fill="none" xmlns="http://www.w3.org/2000/svg">
<path d="M99.5 1H1V13H15.5V16H1V29.5H88.5L99.5 22V1Z" stroke="black" stroke-width="0.5"/>
<path d="M41.1136 10.2727V19H40.0568V10.2727H41.1136ZM44.1019 15.0625V19H43.0962V12.4545H44.0678V13.4773H44.1531C44.3065 13.1449 44.5394 12.8778 44.8519 12.6761C45.1644 12.4716 45.5678 12.3693 46.0621 12.3693C46.5053 12.3693 46.8931 12.4602 47.2255 12.642C47.5579 12.821 47.8164 13.0938 48.0011 13.4602C48.1857 13.8239 48.2781 14.2841 48.2781 14.8409V19H47.2724V14.9091C47.2724 14.3949 47.1388 13.9943 46.8718 13.7074C46.6048 13.4176 46.2383 13.2727 45.7724 13.2727C45.4513 13.2727 45.1644 13.3423 44.9116 13.4815C44.6616 13.6207 44.4641 13.8239 44.3192 14.0909C44.1744 14.358 44.1019 14.6818 44.1019 15.0625ZM53.0305 12.4545V13.3068H49.5021V12.4545H53.0305ZM50.5589 19V11.5511C50.5589 11.1761 50.647 10.8636 50.8232 10.6136C50.9993 10.3636 51.228 10.1761 51.5092 10.0511C51.7905 9.92614 52.0874 9.86364 52.3999 9.86364C52.647 9.86364 52.8487 9.88352 53.005 9.9233C53.1612 9.96307 53.2777 10 53.3544 10.0341L53.0646 10.9034C53.0135 10.8864 52.9425 10.8651 52.8516 10.8395C52.7635 10.8139 52.647 10.8011 52.5021 10.8011C52.1697 10.8011 51.9297 10.8849 51.782 11.0526C51.6371 11.2202 51.5646 11.4659 51.5646 11.7898V19H50.5589ZM56.8295 19.1364C56.2386 19.1364 55.7202 18.9957 55.2741 18.7145C54.831 18.4332 54.4844 18.0398 54.2344 17.5341C53.9872 17.0284 53.8636 16.4375 53.8636 15.7614C53.8636 15.0795 53.9872 14.4844 54.2344 13.9759C54.4844 13.4673 54.831 13.0724 55.2741 12.7912C55.7202 12.5099 56.2386 12.3693 56.8295 12.3693C57.4205 12.3693 57.9375 12.5099 58.3807 12.7912C58.8267 13.0724 59.1733 13.4673 59.4205 13.9759C59.6705 14.4844 59.7955 15.0795 59.7955 15.7614C59.7955 16.4375 59.6705 17.0284 59.4205 17.5341C59.1733 18.0398 58.8267 18.4332 58.3807 18.7145C57.9375 18.9957 57.4205 19.1364 56.8295 19.1364ZM56.8295 18.233C57.2784 18.233 57.6477 18.1179 57.9375 17.8878C58.2273 17.6577 58.4418 17.3551 58.581 16.9801C58.7202 16.6051 58.7898 16.1989 58.7898 15.7614C58.7898 15.3239 58.7202 14.9162 58.581 14.5384C58.4418 14.1605 58.2273 13.8551 57.9375 13.6222C57.6477 13.3892 57.2784 13.2727 56.8295 13.2727C56.3807 13.2727 56.0114 13.3892 55.7216 13.6222C55.4318 13.8551 55.2173 14.1605 55.0781 14.5384C54.9389 14.9162 54.8693 15.3239 54.8693 15.7614C54.8693 16.1989 54.9389 16.6051 55.0781 16.9801C55.2173 17.3551 55.4318 17.6577 55.7216 17.8878C56.0114 18.1179 56.3807 18.233 56.8295 18.233Z" fill="black"/>
</svg>
