<svg width="99" height="29" viewBox="0 0 99 29" fill="none" xmlns="http://www.w3.org/2000/svg">
<path d="M98.5 0H0V12H14.5V16.5H0V28.5H87.5L98.5 21V0Z" fill="#00D1FF"/>
<path d="M40.1136 9.27273V18H39.0568V9.27273H40.1136ZM43.1019 14.0625V18H42.0962V11.4545H43.0678V12.4773H43.1531C43.3065 12.1449 43.5394 11.8778 43.8519 11.6761C44.1644 11.4716 44.5678 11.3693 45.0621 11.3693C45.5053 11.3693 45.8931 11.4602 46.2255 11.642C46.5579 11.821 46.8164 12.0938 47.0011 12.4602C47.1857 12.8239 47.2781 13.2841 47.2781 13.8409V18H46.2724V13.9091C46.2724 13.3949 46.1388 12.9943 45.8718 12.7074C45.6048 12.4176 45.2383 12.2727 44.7724 12.2727C44.4513 12.2727 44.1644 12.3423 43.9116 12.4815C43.6616 12.6207 43.4641 12.8239 43.3192 13.0909C43.1744 13.358 43.1019 13.6818 43.1019 14.0625ZM52.0305 11.4545V12.3068H48.5021V11.4545H52.0305ZM49.5589 18V10.5511C49.5589 10.1761 49.647 9.86364 49.8232 9.61364C49.9993 9.36364 50.228 9.17614 50.5092 9.05114C50.7905 8.92614 51.0874 8.86364 51.3999 8.86364C51.647 8.86364 51.8487 8.88352 52.005 8.9233C52.1612 8.96307 52.2777 9 52.3544 9.03409L52.0646 9.90341C52.0135 9.88636 51.9425 9.86506 51.8516 9.83949C51.7635 9.81392 51.647 9.80114 51.5021 9.80114C51.1697 9.80114 50.9297 9.88494 50.782 10.0526C50.6371 10.2202 50.5646 10.4659 50.5646 10.7898V18H49.5589ZM55.8295 18.1364C55.2386 18.1364 54.7202 17.9957 54.2741 17.7145C53.831 17.4332 53.4844 17.0398 53.2344 16.5341C52.9872 16.0284 52.8636 15.4375 52.8636 14.7614C52.8636 14.0795 52.9872 13.4844 53.2344 12.9759C53.4844 12.4673 53.831 12.0724 54.2741 11.7912C54.7202 11.5099 55.2386 11.3693 55.8295 11.3693C56.4205 11.3693 56.9375 11.5099 57.3807 11.7912C57.8267 12.0724 58.1733 12.4673 58.4205 12.9759C58.6705 13.4844 58.7955 14.0795 58.7955 14.7614C58.7955 15.4375 58.6705 16.0284 58.4205 16.5341C58.1733 17.0398 57.8267 17.4332 57.3807 17.7145C56.9375 17.9957 56.4205 18.1364 55.8295 18.1364ZM55.8295 17.233C56.2784 17.233 56.6477 17.1179 56.9375 16.8878C57.2273 16.6577 57.4418 16.3551 57.581 15.9801C57.7202 15.6051 57.7898 15.1989 57.7898 14.7614C57.7898 14.3239 57.7202 13.9162 57.581 13.5384C57.4418 13.1605 57.2273 12.8551 56.9375 12.6222C56.6477 12.3892 56.2784 12.2727 55.8295 12.2727C55.3807 12.2727 55.0114 12.3892 54.7216 12.6222C54.4318 12.8551 54.2173 13.1605 54.0781 13.5384C53.9389 13.9162 53.8693 14.3239 53.8693 14.7614C53.8693 15.1989 53.9389 15.6051 54.0781 15.9801C54.2173 16.3551 54.4318 16.6577 54.7216 16.8878C55.0114 17.1179 55.3807 17.233 55.8295 17.233Z" fill="black"/>
</svg>
