<svg width="1728" height="25" viewBox="0 0 1728 25" fill="none" xmlns="http://www.w3.org/2000/svg">
<path d="M0 15H95.85L103.5 24L118.35 7.5H130.5L136.8 15H468.45V18L466.65 20.5H474.3L472.05 18V15H476.1L483.75 23.5L505.8 0L516.6 12H665.55L667.8 11V9L665.1 7V5H672.3V7L670.95 8L669.6 9V11L671.4 12L676.35 19L681.3 12.5H748.35L754.65 20H785.7L796.5 7H829.35L834.75 1L846.9 15H921.6L923.4 18L918.9 24H928.8L924.3 18L927 15H1057.95L1066.05 23.5L1080 7H1092.6L1098.9 15H1386L1386.9 16V18L1384.2 21H1390.5V19L1388.7 18V16L1389.6 15H1393.2L1401.3 24L1422.9 0.5L1433.7 12.5H1537.65L1539.9 11V8.5L1537.2 6.5V5.5H1544.4V6.5L1541.25 8.5V11L1543.5 12.5L1548.45 19L1553.85 12.5H1620.9L1626.3 20H1657.8L1668.6 7H1701.45L1706.85 1L1719 14.5L1719.9 15.5H1728V25H0V15Z" fill="#FAF002"/>
</svg>
