<svg width="633" height="30" viewBox="0 0 633 30" fill="none" xmlns="http://www.w3.org/2000/svg">
<path fill-rule="evenodd" clip-rule="evenodd" d="M621.116 15.965L613.463 24.029H600.541L584.574 7.026L584.551 7.049L584.532 7.026L575.362 16.041H432.759L432.786 16.068H426.129L426.156 16.041H429.759L426.461 12.504L431.969 7.026H420.965L426.461 12.504L423.156 16.041H341.442L336.749 20.484L327.502 29.954L321.337 23.975L285.081 24.029L272.422 10.996H238.79L231.552 18.043L157.29 18.005L151.52 12.508L142.871 20.799L139.98 18.005L0 18.037V0H633V15.965H621.116ZM551.376 12.205H553.111V7.026H551.376V12.205ZM548.752 12.205H550.482V7.026H548.752V12.205ZM536.63 12.205H538.36V7.026H536.63V12.205ZM515.831 12.205H521.027V7.026H515.831V12.205ZM308.324 18.714H310.059V16.989H308.324V18.714ZM301.683 18.714H303.418V13.536H301.683V18.714ZM288.249 18.714H289.983V16.989H288.249V18.714ZM288.249 15.26H289.983V13.536H288.249V15.26Z" fill="black"/>
</svg>
