<svg width="1920" height="25" viewBox="0 0 1920 25" fill="none" xmlns="http://www.w3.org/2000/svg">
<path d="M0 15H106.5L115 24L131.5 7.5H145L152 15H520.5V18L518.5 20.5H527L524.5 18V15H529L537.5 23.5L562 0L574 12H739.5L742 11V9L739 7V5H747V7L745.5 8L744 9V11L746 12L751.5 19L757 12.5H831.5L838.5 20H873L885 7H921.5L927.5 1L941 15H1024L1026 18L1021 24H1032L1027 18L1030 15H1175.5L1184.5 23.5L1200 7H1214L1221 15H1540L1541 16V18L1538 21H1545V19L1543 18V16L1544 15H1548L1557 24L1581 0.5L1593 12.5H1708.5L1711 11V8.5L1708 6.5V5.5H1716V6.5L1712.5 8.5V11L1715 12.5L1720.5 19L1726.5 12.5H1801L1807 20H1842L1854 7H1890.5L1896.5 1L1910 14.5L1911 15.5H1920V25H0V15Z" fill="black"/>
</svg>
