<svg width="75" height="75" viewBox="0 0 75 75" fill="none" xmlns="http://www.w3.org/2000/svg">
<path d="M46.875 57.8125C39.0625 57.8125 32.25 53.375 28.875 46.875H46.875L50 40.625H26.8125C26.6563 39.5938 26.5625 38.5625 26.5625 37.5C26.5625 36.4375 26.6563 35.4063 26.8125 34.375H46.875L50 28.125H28.875C30.5862 24.8285 33.1697 22.0651 36.3439 20.1364C39.518 18.2077 43.1608 17.1876 46.875 17.1875C51.9063 17.1875 56.5313 19.0313 60.0938 22.0938L65.625 16.5625C60.4786 11.9309 53.7987 9.37024 46.875 9.37501C34.625 9.37501 24.25 17.1875 20.3125 28.125H9.375L6.25 34.375H18.9375C18.75 35.4063 18.75 36.4375 18.75 37.5C18.75 38.5625 18.75 39.5938 18.9375 40.625H9.375L6.25 46.875H20.3125C24.25 57.8125 34.625 65.625 46.875 65.625C54.0938 65.625 60.6563 62.9063 65.625 58.4375L60.0625 52.9063C56.5313 55.9688 51.9375 57.8125 46.875 57.8125Z" fill="#FAF002"/>
</svg>
